{
  "source": "C:\\Users\\Peter\\Desktop\\stuff\\MIUN\\quantitative_research\\video_compression\\videos\\BVI-HD\\BVI-HD_CDVL_videos\\ORIG\\Lightreef_1920x1080_30fps.mp4",
  "output": "C:\\Users\\Peter\\Desktop\\stuff\\MIUN\\quantitative_research\\video_compression\\compressed_videos\\BVI-HD\\vp9\\2\\Lightreef_1920x1080_30fps_vp9.webm",
  "codec": "vp9",
  "ok": "Input #0, mov,mp4,m4a,3gp,3g2,mj2, from 'C:\\Users\\Peter\\Desktop\\stuff\\MIUN\\quantitative_research\\video_compression\\videos\\BVI-HD\\BVI-HD_CDVL_videos\\ORIG\\Lightreef_1920x1080_30fps.mp4':\n  Metadata:\n    major_brand     : isom\n    minor_version   : 512\n    compatible_brands: isomiso2avc1mp41\n    encoder         : Lavf54.28.101\n  Duration: 00:00:05.00, start: 0.000000, bitrate: 361719 kb/s\n  Stream #0:0[0x1](und): Video: h264 (High 4:4:4 Predictive) (avc1 / 0x31637661), yuv420p(progressive), 1920x1080, 361715 kb/s, 30 fps, 30 tbr, 30 tbn (default)\n    Metadata:\n      handler_name    : VideoHandler\n      vendor_id       : [0][0][0][0]\n[out#0/webm @ 000001954f8f9700] Codec AVOption b:a (set bitrate (in bits/s)) has not been used for any stream. The most likely reason is either wrong type (e.g. a video option with no video streams) or that it is a private option of some decoder which was not actually used for any stream.\nStream mapping:\n  Stream #0:0 -> #0:0 (h264 (native) -> vp9 (libvpx-vp9))\nPress [q] to stop, [?] for help\n[libvpx-vp9 @ 0000019550550440] v1.15.2-100-g40561f514\nOutput #0, webm, to 'C:\\Users\\Peter\\Desktop\\stuff\\MIUN\\quantitative_research\\video_compression\\compressed_videos\\BVI-HD\\vp9\\2\\Lightreef_1920x1080_30fps_vp9.webm':\n  Metadata:\n    major_brand     : isom\n    minor_version   : 512\n    compatible_brands: isomiso2avc1mp41\n    encoder         : Lavf62.3.100\n  Stream #0:0(und): Video: vp9, yuv420p(tv, progressive), 1920x1080, q=2-31, 2000 kb/s, 30 fps, 1k tbn (default)\n    Metadata:\n      encoder         : Lavc62.11.100 libvpx-vp9\n      handler_name    : VideoHandler\n      vendor_id       : [0][0][0][0]\n    Side data:\n      cpb: bitrate max/min/avg: 0/0/0 buffer size: 2000000 vbv_delay: N/A\nframe=    0 fps=0.0 q=0.0 size=       0KiB time=N/A bitrate=N/A speed=N/A elapsed=0:00:00.50    \nframe=    0 fps=0.0 q=0.0 size=       0KiB time=N/A bitrate=N/A speed=N/A elapsed=0:00:01.02    \nframe=    5 fps=3.2 q=56.0 size=       1KiB time=00:00:00.16 bitrate=  30.4kbits/s speed=0.105x elapsed=0:00:01.58    \nframe=    9 fps=4.3 q=57.0 size=       1KiB time=00:00:00.30 bitrate=  16.9kbits/s speed=0.142x elapsed=0:00:02.10    \nframe=   12 fps=4.6 q=56.0 size=       1KiB time=00:00:00.40 bitrate=  12.7kbits/s speed=0.152x elapsed=0:00:02.63    \nframe=   16 fps=5.0 q=55.0 size=       1KiB time=00:00:00.53 bitrate=   9.5kbits/s speed=0.168x elapsed=0:00:03.17    \nframe=   19 fps=5.1 q=55.0 size=       1KiB time=00:00:00.63 bitrate=   8.0kbits/s speed=0.171x elapsed=0:00:03.69    \nframe=   22 fps=5.2 q=55.0 size=       1KiB time=00:00:00.73 bitrate=   6.9kbits/s speed=0.174x elapsed=0:00:04.21    \nframe=   26 fps=5.5 q=55.0 size=       1KiB time=00:00:00.86 bitrate=   5.9kbits/s speed=0.182x elapsed=0:00:04.75    \nframe=   29 fps=5.5 q=55.0 size=       1KiB time=00:00:00.96 bitrate=   5.2kbits/s speed=0.183x elapsed=0:00:05.27    \nframe=   32 fps=5.5 q=55.0 size=       1KiB time=00:00:01.06 bitrate=   4.8kbits/s speed=0.184x elapsed=0:00:05.79    \nframe=   36 fps=5.7 q=54.0 size=       1KiB time=00:00:01.20 bitrate=   4.2kbits/s speed=0.19x elapsed=0:00:06.30    \nframe=   40 fps=5.9 q=54.0 size=       1KiB time=00:00:01.30 bitrate=   3.9kbits/s speed=0.191x elapsed=0:00:06.82    \nframe=   43 fps=5.8 q=51.0 size=       1KiB time=00:00:01.43 bitrate=   3.5kbits/s speed=0.195x elapsed=0:00:07.36    \nframe=   46 fps=5.8 q=53.0 size=       1KiB time=00:00:01.53 bitrate=   3.3kbits/s speed=0.194x elapsed=0:00:07.88    \nframe=   49 fps=5.8 q=54.0 size=       1KiB time=00:00:01.63 bitrate=   3.1kbits/s speed=0.194x elapsed=0:00:08.43    \nframe=   52 fps=5.8 q=56.0 size=       1KiB time=00:00:01.73 bitrate=   2.9kbits/s speed=0.193x elapsed=0:00:08.97    \nframe=   55 fps=5.8 q=57.0 size=       1KiB time=00:00:01.83 bitrate=   2.8kbits/s speed=0.193x elapsed=0:00:09.49    \nframe=   57 fps=5.7 q=49.0 size=       1KiB time=00:00:01.90 bitrate=   2.7kbits/s speed=0.189x elapsed=0:00:10.06    \nframe=   58 fps=5.4 q=50.0 size=       1KiB time=00:00:01.93 bitrate=   2.6kbits/s speed=0.181x elapsed=0:00:10.70    \nframe=   60 fps=5.3 q=52.0 size=       1KiB time=00:00:02.00 bitrate=   2.5kbits/s speed=0.176x elapsed=0:00:11.33    \nframe=   62 fps=5.2 q=53.0 size=       1KiB time=00:00:02.03 bitrate=   2.5kbits/s speed=0.17x elapsed=0:00:11.99    \nframe=   63 fps=5.0 q=54.0 size=       1KiB time=00:00:02.10 bitrate=   2.4kbits/s speed=0.167x elapsed=0:00:12.61    \nframe=   65 fps=4.9 q=54.0 size=       1KiB time=00:00:02.16 bitrate=   2.3kbits/s speed=0.164x elapsed=0:00:13.23    \nframe=   68 fps=4.9 q=57.0 size=       1KiB time=00:00:02.26 bitrate=   2.2kbits/s speed=0.164x elapsed=0:00:13.81    \nframe=   71 fps=4.9 q=55.0 size=       1KiB time=00:00:02.36 bitrate=   2.1kbits/s speed=0.165x elapsed=0:00:14.38    \nframe=   74 fps=5.0 q=56.0 size=       1KiB time=00:00:02.43 bitrate=   2.1kbits/s speed=0.163x elapsed=0:00:14.94    \nframe=   76 fps=4.9 q=56.0 size=       1KiB time=00:00:02.53 bitrate=   2.0kbits/s speed=0.163x elapsed=0:00:15.50    \nframe=   78 fps=4.9 q=56.0 size=       1KiB time=00:00:02.60 bitrate=   2.0kbits/s speed=0.162x elapsed=0:00:16.07    \nframe=   81 fps=4.9 q=53.0 size=       1KiB time=00:00:02.70 bitrate=   1.9kbits/s speed=0.162x elapsed=0:00:16.61    \nframe=   83 fps=4.8 q=55.0 size=       1KiB time=00:00:02.76 bitrate=   1.8kbits/s speed=0.161x elapsed=0:00:17.19    \nframe=   86 fps=4.8 q=56.0 size=       1KiB time=00:00:02.86 bitrate=   1.8kbits/s speed=0.162x elapsed=0:00:17.74    \nframe=   88 fps=4.8 q=57.0 size=       1KiB time=00:00:02.93 bitrate=   1.7kbits/s speed=0.16x elapsed=0:00:18.31    \nframe=   90 fps=4.8 q=58.0 size=       1KiB time=00:00:03.00 bitrate=   1.7kbits/s speed=0.159x elapsed=0:00:18.90    \nframe=   92 fps=4.7 q=57.0 size=       1KiB time=00:00:03.06 bitrate=   1.7kbits/s speed=0.157x elapsed=0:00:19.47    \nframe=   94 fps=4.7 q=57.0 size=       1KiB time=00:00:03.13 bitrate=   1.6kbits/s speed=0.156x elapsed=0:00:20.04    \nframe=   96 fps=4.6 q=56.0 size=       1KiB time=00:00:03.20 bitrate=   1.6kbits/s speed=0.155x elapsed=0:00:20.65    \nframe=   98 fps=4.6 q=55.0 size=       1KiB time=00:00:03.26 bitrate=   1.6kbits/s speed=0.154x elapsed=0:00:21.20    \nframe=  100 fps=4.6 q=56.0 size=       1KiB time=00:00:03.33 bitrate=   1.5kbits/s speed=0.153x elapsed=0:00:21.78    \nframe=  103 fps=4.6 q=55.0 size=       1KiB time=00:00:03.43 bitrate=   1.5kbits/s speed=0.154x elapsed=0:00:22.33    \nframe=  105 fps=4.6 q=57.0 size=       1KiB time=00:00:03.50 bitrate=   1.4kbits/s speed=0.153x elapsed=0:00:22.90    \nframe=  107 fps=4.5 q=49.0 size=       1KiB time=00:00:03.56 bitrate=   1.4kbits/s speed=0.152x elapsed=0:00:23.53    \nframe=  109 fps=4.5 q=55.0 size=       1KiB time=00:00:03.63 bitrate=   1.4kbits/s speed=0.151x elapsed=0:00:24.06    \nframe=  111 fps=4.5 q=56.0 size=       1KiB time=00:00:03.70 bitrate=   1.4kbits/s speed=0.15x elapsed=0:00:24.59    \nframe=  113 fps=4.5 q=48.0 size=       1KiB time=00:00:03.76 bitrate=   1.3kbits/s speed=0.15x elapsed=0:00:25.15    \nframe=  115 fps=4.5 q=55.0 size=       1KiB time=00:00:03.83 bitrate=   1.3kbits/s speed=0.149x elapsed=0:00:25.70    \nframe=  117 fps=4.5 q=56.0 size=       1KiB time=00:00:03.90 bitrate=   1.3kbits/s speed=0.149x elapsed=0:00:26.23    \nframe=  119 fps=4.4 q=44.0 size=       1KiB time=00:00:03.96 bitrate=   1.3kbits/s speed=0.148x elapsed=0:00:26.77    \nframe=  122 fps=4.5 q=54.0 size=       1KiB time=00:00:04.03 bitrate=   1.3kbits/s speed=0.148x elapsed=0:00:27.33    \nframe=  124 fps=4.4 q=54.0 size=       1KiB time=00:00:04.13 bitrate=   1.2kbits/s speed=0.148x elapsed=0:00:27.95    \nframe=  126 fps=4.4 q=54.0 size=       1KiB time=00:00:04.20 bitrate=   1.2kbits/s speed=0.147x elapsed=0:00:28.51    \nframe=  126 fps=4.3 q=54.0 size=       1KiB time=00:00:04.20 bitrate=   1.2kbits/s speed=0.144x elapsed=0:00:29.07    \nframe=  126 fps=4.3 q=54.0 size=       1KiB time=00:00:04.20 bitrate=   1.2kbits/s speed=0.142x elapsed=0:00:29.61    \nframe=  126 fps=4.2 q=54.0 size=       1KiB time=00:00:04.20 bitrate=   1.2kbits/s speed=0.139x elapsed=0:00:30.18    \nframe=  126 fps=4.1 q=54.0 size=       1KiB time=00:00:04.20 bitrate=   1.2kbits/s speed=0.137x elapsed=0:00:30.75    \nframe=  126 fps=4.0 q=54.0 size=       1KiB time=00:00:04.20 bitrate=   1.2kbits/s speed=0.134x elapsed=0:00:31.27    \nframe=  126 fps=4.0 q=54.0 size=       1KiB time=00:00:04.20 bitrate=   1.2kbits/s speed=0.132x elapsed=0:00:31.81    \nframe=  126 fps=3.9 q=54.0 size=       1KiB time=00:00:04.20 bitrate=   1.2kbits/s speed=0.13x elapsed=0:00:32.37    \nframe=  126 fps=3.8 q=54.0 size=       1KiB time=00:00:04.20 bitrate=   1.2kbits/s speed=0.128x elapsed=0:00:32.93    \nframe=  126 fps=3.8 q=54.0 size=       1KiB time=00:00:04.20 bitrate=   1.2kbits/s speed=0.125x elapsed=0:00:33.49    \nframe=  126 fps=3.7 q=54.0 size=       1KiB time=00:00:04.20 bitrate=   1.2kbits/s speed=0.123x elapsed=0:00:34.07    \n[out#0/webm @ 000001954f8f9700] video:1585KiB audio:0KiB subtitle:0KiB other streams:0KiB global headers:0KiB muxing overhead: 0.108740%\nframe=  150 fps=4.3 q=59.0 Lsize=    1587KiB time=00:00:05.00 bitrate=2599.8kbits/s speed=0.144x elapsed=0:00:34.65    \n",
  "seconds": 35.04632329940796,
  "probe_out": {}
}